# AST/ASF file generated using VICON BodyLanguage
# -----------------------------------------------
:version 1.10
:name VICON
:units
  mass 1.0
  length 0.45
  angle deg
:documentation
   .ast/.asf automatically generated from VICON data using
   VICON BodyBuilder and BodyLanguage model FoxedUp or BRILLIANT.MOD
:root
   order TX TY TZ RX RY RZ
   axis XYZ
   position 0 0 0  
   orientation 0 0 0 
:bonedata
  begin
     id 1 
     name lhipjoint
     direction 0.646657 -0.683706 0.338203 
     length 2.4948 
     axis 0 0 0  XYZ
  end
  begin
     id 2 
     name lfemur
     direction 0.34202 -0.939693 0  
     length 6.79491  
     axis 0 0 20  XYZ
    dof rx ry rz
    limits (-160.0 20.0)
           (-70.0 70.0)
           (-60.0 70.0)
  end
  begin
     id 3 
     name ltibia
     direction 0.34202 -0.939693 0   
     length 7.56807   
     axis 0 0 20   XYZ
    dof rx
    limits (-10.0 170.0)
  end
  begin
     id 4 
     name lfoot
     direction 0.0679796 -0.186772 0.980048   
     length 2.53018   
     axis -90 7.62852e-016 20   XYZ
    dof rx rz
    limits (-45.0 90.0)
           (-70.0 20.0)
  end
  begin
     id 5 
     name ltoes
     direction 1.53625e-011 -4.21881e-011 1   
     length 1.26912   
     axis -90 7.62852e-016 20   XYZ
    dof rx
    limits (-90.0 20.0)
  end
  begin
     id 6 
     name rhipjoint
     direction -0.618868 -0.704065 0.348274   
     length 2.42265  
     axis 0 0 0  XYZ 
  end
  begin
     id 7 
     name rfemur
     direction -0.34202 -0.939693 0   
     length 6.73814   
     axis 0 0 -20   XYZ
    dof rx ry rz
    limits (-160.0 20.0)
           (-70.0 70.0)
           (-70.0 60.0)
  end
  begin
     id 8 
     name rtibia
     direction -0.34202 -0.939693 0   
     length 7.66799   
     axis 0 0 -20   XYZ
    dof rx
    limits (-10.0 170.0)
 end
 begin
     id 9 
     name rfoot
     direction -0.0727352 -0.199838 0.977125   
     length 2.57224  
     axis -90 -7.62852e-016 -20   XYZ
    dof rx rz
    limits (-45.0 90.0)
           (-20.0 70.0)
  end
  begin
     id 10 
     name rtoes
     direction -1.53501e-011 -4.21858e-011 1   
     length 1.28858   
     axis -90 -7.62852e-016 -20   XYZ
    dof rx
    limits (-90.0 20.0)
  end
  begin
     id 11 
     name lowerback
     direction -0.0172471 0.995767 -0.0902851   
     length 2.20206   
     axis 0 0 0   XYZ
    dof rx ry rz
    limits (-20.0 45.0)
           (-30.0 30.0)
           (-30.0 30.0)
  end
  begin
     id 12 
     name upperback
     direction -0.000110737 0.999714 0.0239043   
     length 2.19523   
     axis 0 0 0   XYZ
    dof rx ry rz
    limits (-20.0 45.0)
           (-30.0 30.0)
           (-30.0 30.0)
  end
  begin
     id 13 
     name thorax
     direction 0.00704869 0.997783 0.0661741   
     length 2.21977   
     axis 0 0 0   XYZ
    dof rx ry rz
    limits (-20.0 45.0)
           (-30.0 30.0)
           (-30.0 30.0)
  end
  begin
     id 14 
     name lowerneck
     direction -0.00407501 0.995527 0.0943846   
     length 1.83142   
     axis 0 0 0   XYZ
    dof rx ry rz
    limits (-20.0 45.0)
           (-30.0 30.0)
           (-30.0 30.0)
  end
  begin
     id 15 
     name upperneck
     direction 0.0640586 0.986486 -0.150807   
     length 1.84616   
     axis 0 0 0   XYZ
    dof rx ry rz
    limits (-20.0 45.0)
           (-30.0 30.0)
           (-30.0 30.0)
  end
  begin
     id 16
     name head
     direction 0.0188017 0.99791 -0.0618239  
     length 1.85932  
     axis 0 0 0   XYZ
    dof rx ry rz
    limits (-20.0 45.0)
           (-30.0 30.0)
           (-30.0 30.0)
  end
  begin
     id 17 
     name lclavicle
     direction 0.976074 0.206905 0.066852  
     length 3.81043  
     axis 0 0 0   XYZ
    dof ry rz
    limits (-20.0 10.0)
           (0.0 20.0)
  end
  begin
     id 18 
     name lhumerus
     direction 1 -4.48971e-011 1.86916e-027   
     length 5.37587   
     axis 180 -30 -90   XYZ
    dof rx ry rz
    limits (-60.0 90.0)
           (-90.0 90.0)
           (-90.0 90.0)
  end
  begin
     id 19
     name lradius
     direction 1 -4.48968e-011 1.69187e-027   
     length 3.35977   
     axis 180 -30 -90   XYZ
    dof rx
    limits (-10.0 170.0)
  end
  begin
     id 20
     name lwrist
     direction 1 -4.48968e-011 5.8978e-027   
     length 1.67988   
     axis -3.27506e-015 90 90   XYZ
    dof ry
    limits (-180.0 0.0)
 end
  begin
     id 21 
     name lhand
     direction 1 -4.49028e-011 1.18071e-026   
     length 0.561859   
     axis -7.52654e-015 90 90   XYZ
    dof rx rz
    limits (-90.0 90.0)
           (-45.0 45.0)
  end
  begin
     id 22 
     name lfingers
     direction 1 -4.48927e-011 2.35758e-026   
     length 0.452985   
     axis -1.50534e-014 90 90   XYZ
    dof rx
    limits (0.0 90.0)
  end
  begin
     id 23
     name lthumb
     direction 0.707107 -6.34898e-011 0.707107   
     length 0.650399   
     axis -90 45 5.69224e-014   XYZ
    dof rx rz
    limits (-45.0 45.0)
           (-45.0 45.0)
  end
  begin
     id 24 
     name rclavicle
     direction -0.988403 0.151789 0.00439714   
     length 3.6942  
     axis 0 0 0   XYZ 
    dof ry rz
    limits (-10.0 20.0)
           (-20.0 0.0)
  end
  begin
     id 25 
     name rhumerus
     direction -1 -4.48978e-011 1.62495e-027  
     length 5.22819   
     axis 180 30 90   XYZ
    dof rx ry rz
    limits (-90.0 60.0)
           (-90.0 90.0)
           (-90.0 90.0)
  end
  begin
     id 26 
     name rradius
     direction -1 -4.48961e-011 3.47796e-027   
     length 3.40764   
     axis 180 30 90   XYZ
    dof rx
    limits (-10.0 170.0)
  end
  begin
     id 27 
     name rwrist
     direction -1 -4.48949e-011 5.89602e-027   
     length 1.70382   
     axis -3.27506e-015 -90 -90   XYZ
    dof ry
    limits (-180.0 0.0)
  end
  begin
     id 28
     name rhand
     direction -1 -4.48977e-011 1.17973e-026   
     length 0.583255   
     axis -7.52654e-015 -90 -90   XYZ
    dof rx rz
    limits (-90.0 90.0)
           (-45.0 45.0)
  end
  begin
     id 29
     name rfingers
     direction -1 -4.49099e-011 2.36408e-026   
     length 0.470235   
     axis -1.50534e-014 -90 -90   XYZ
    dof rx
    limits (0.0 90.0)
  end
  begin
     id 30
     name rthumb
     direction -0.707107 -6.35011e-011 0.707107   
     length 0.675167   
     axis -90 -45 -5.69224e-014   XYZ
    dof rx rz
    limits (-45.0 45.0)
           (-45.0 45.0)
  end
:hierarchy
  begin
    root lhipjoint rhipjoint lowerback
    lhipjoint lfemur
    lfemur ltibia
    ltibia lfoot
    lfoot ltoes
    rhipjoint rfemur
    rfemur rtibia
    rtibia rfoot
    rfoot rtoes
    lowerback upperback
    upperback thorax
    thorax lowerneck lclavicle rclavicle
    lowerneck upperneck
    upperneck head
    lclavicle lhumerus
    lhumerus lradius
    lradius lwrist
    lwrist lhand lthumb
    lhand lfingers
    rclavicle rhumerus
    rhumerus rradius
    rradius rwrist
    rwrist rhand rthumb
    rhand rfingers
  end

#!OML:ASF G:\JayActor3\Patient Classification 1\Patient 1\Session 2\male.ASF
:FULLY-SPECIFIED
:DEGREES
1229
root -26.5364 16.8128 -4.92954 91.9279 87.4192 -259.629
lowerback 8.81247 0.570294 -2.62929
upperback -0.588454 0.428886 -1.26718
thorax -5.57386 0.277674 0.0986499
lowerneck -4.34854 -2.9771 -3.09209
upperneck -3.77655 -3.54545 9.51685
head -0.189894 -1.67829 3.56796
rclavicle -5.46658e-015 2.70347e-014
rhumerus -52.7744 19.9699 -93.3193
rradius 67.0223
rwrist 2.79253
rhand -28.7237 17.4285
rfingers 7.12502
rthumb -2.08487 -12.5411
lclavicle -5.46658e-015 2.70347e-014
lhumerus -30.5495 -3.4293 84.4624
lradius 118.775
lwrist 81.386
lhand -22.1625 9.67051
lfingers 7.12502
lthumb 4.25182 39.6078
rfemur -37.1604 -12.6356 19.6337
rtibia 110.655
rfoot 1.88998 -4.70557
rtoes 13.5653
lfemur 7.0984 6.32131 -27.9853
ltibia 6.36065
lfoot -4.13619 -1.56432
ltoes 0.719759
1230
root -26.4267 16.8515 -4.9386 82.1886 87.4051 -269.263
lowerback 9.04728 0.639933 -2.5039
upperback -0.526684 0.529305 -1.25245
thorax -5.64274 0.324007 0.0278843
lowerneck -4.60775 -2.8873 -2.99818
upperneck -3.54945 -3.44647 9.42318
head -0.0828358 -1.61994 3.51339
rclavicle -3.2054e-015 2.38542e-014
rhumerus -52.5208 19.7387 -93.0243
rradius 66.8736
rwrist 2.82116
rhand -28.7906 17.3957
rfingers 7.12502
rthumb -2.14951 -12.5732
lclavicle -3.2054e-015 2.38542e-014
lhumerus -30.3923 -3.4411 84.5039
lradius 118.714
lwrist 81.3374
lhand -22.2017 9.65977
lfingers 7.12502
lthumb 4.21402 39.5978
rfemur -40.8594 -12.8783 19.8259
rtibia 115.053
rfoot 0.956001 -3.71144
rtoes 11.0663
lfemur 11.1916 6.90883 -27.8399
ltibia 1.35174e-014
lfoot -1.7341 -1.53049
ltoes 0.369845
1231
root -26.3142 16.8893 -4.94428 72.2891 87.3652 -279.07
lowerback 9.22091 0.720698 -2.37598
upperback -0.452476 0.649178 -1.21018
thorax -5.66409 0.379692 -0.0179181
lowerneck -4.88112 -2.80407 -2.91091
upperneck -3.34349 -3.354 9.33574
head 0.0206867 -1.56462 3.46293
rclavicle 7.57867e-016 3.37934e-015
rhumerus -52.2901 19.508 -92.7144
rradius 66.7478
rwrist 2.84055
rhand -28.8741 17.3836
rfingers 7.12502
rthumb -2.23017 -12.5845
lclavicle 7.57867e-016 3.37934e-015
lhumerus -30.2214 -3.42435 84.5589
lradius 118.651
lwrist 81.408
lhand -22.2656 9.62065
lfingers 7.12502
lthumb 4.15232 39.5599
rfemur -44.4895 -13.0345 20.1445
rtibia 119.254
rfoot -0.145277 -2.7935
rtoes 8.73031
lfemur 11.7816 7.50687 -27.6853
ltibia 1.74931e-014
lfoot -2.14319 -1.69894
ltoes 0.0751827
1232
root -26.1994 16.9245 -4.94469 63.2713 87.2607 -288.015
lowerback 9.35532 0.803387 -2.31349
upperback -0.383798 0.766665 -1.15385
thorax -5.66978 0.436255 -0.011868
lowerneck -5.12533 -2.72629 -2.83052
upperneck -3.19334 -3.26404 9.25955
head 0.101912 -1.51203 3.41914
rclavicle -1.77664e-015 -2.16675e-014
rhumerus -52.1166 19.3115 -92.4287
rradius 66.6714
rwrist 2.85647
rhand -28.9708 17.402
rfingers 7.12502
rthumb -2.32353 -12.5651
lclavicle -1.77664e-015 -2.16675e-014
lhumerus -30.0739 -3.38063 84.6039
lradius 118.611
lwrist 81.5728
lhand -22.3189 9.56235
lfingers 7.12502
lthumb 4.10082 39.5026
rfemur -48.0468 -13.1707 20.5029
rtibia 123.28
rfoot -1.41868 -1.95546
rtoes 6.59412
lfemur 12.3321 8.08021 -27.5025
ltibia 3.57812e-014
lfoot -2.48803 -1.89568
ltoes -0.18939
1233
root -26.082 16.956 -4.93877 56.896 87.1005 -294.334
lowerback 9.475 0.867843 -2.36458
upperback -0.33714 0.847131 -1.1009
thorax -5.69135 0.478119 0.0594042
lowerneck -5.31542 -2.65196 -2.75326
upperneck -3.09748 -3.17441 9.20028
head 0.156902 -1.46174 3.38329
rclavicle 5.95112e-015 -1.35174e-014
rhumerus -52.0317 19.1706 -92.2047
rradius 66.6587
rwrist 2.87269
rhand -29.0795 17.4403
rfingers 7.12502
rthumb -2.42844 -12.5256
lclavicle 5.95112e-015 -1.35174e-014
lhumerus -29.9884 -3.32023 84.6183
lradius 118.619
lwrist 81.7924
lhand -22.3411 9.49005
lfingers 7.12502
lthumb 4.07935 39.4307
rfemur -51.4893 -13.4475 20.7852
rtibia 127.127
rfoot -2.83466 -1.07999
rtoes 4.82795
lfemur 12.8497 8.57014 -27.3488
ltibia 3.18055e-014
lfoot -2.78807 -2.09364
ltoes -0.433124
1234
root -25.9637 16.9679 -4.92721 53.5598 86.9178 -297.631
lowerback 9.59979 0.904079 -2.52823
upperback -0.327599 0.87513 -1.06552
thorax -5.7556 0.497747 0.182399
lowerneck -5.43227 -2.58507 -2.67363
upperneck -3.05282 -3.09134 9.15301
head 0.183516 -1.4174 3.35235
rclavicle -1.06847e-014 -6.4605e-015
rhumerus -52.0481 19.0906 -92.0641
rradius 66.702
rwrist 2.88564
rhand -29.1881 17.4929
rfingers 7.12502
rthumb -2.53336 -12.4718
lclavicle -1.06847e-014 -6.4605e-015
lhumerus -29.9901 -3.25997 84.5909
lradius 118.68
lwrist 81.9955
lhand -22.3311 9.41271
lfingers 7.12502
lthumb 4.08904 39.3532
rfemur -54.9093 -13.9648 20.9311
rtibia 130.904
rfoot -4.39746 -0.050386
rtoes 3.19439
lfemur 13.3345 8.95431 -27.2679
ltibia 7.07673e-014
lfoot -3.06952 -2.26563
ltoes -0.648509
1235
root -25.8415 16.9887 -4.91323 53.1834 86.763 -297.972
lowerback 9.74337 0.897918 -2.76008
upperback -0.349048 0.835654 -1.05306
thorax -5.86232 0.486605 0.328921
lowerneck -5.48702 -2.52717 -2.59898
upperneck -3.04427 -3.01759 9.12129
head 0.188907 -1.37978 3.32845
rclavicle -1.44119e-015 2.68359e-015
rhumerus -52.1636 19.0729 -92.0071
rradius 66.8097
rwrist 2.88128
rhand -29.2783 17.5299
rfingers 7.12502
rthumb -2.6205 -12.4338
lclavicle -1.44119e-015 2.68359e-015
lhumerus -30.0615 -3.21361 84.5194
lradius 118.778
lwrist 82.1259
lhand -22.289 9.37065
lfingers 7.12502
lthumb 4.12974 39.3104
rfemur -58.0373 -15.0109 20.7793
rtibia 134.353
rfoot -5.84772 1.26503
rtoes 1.74662
lfemur 13.8102 9.20106 -27.2561
ltibia -2.38542e-014
lfoot -3.35586 -2.38273
ltoes -0.847813
